<?xml version="1.0" encoding="UTF-8"?>
<svg xmlns="http://www.w3.org/2000/svg" width="24" height="25" viewBox="0 0 24 25" fill="none">
  <path d="M4.125 9.11768C3.57272 9.11768 3.125 9.56539 3.125 10.1177C3.125 10.67 3.57272 11.1177 4.125 11.1177V9.11768ZM19.875 11.1177C20.4273 11.1177 20.875 10.67 20.875 10.1177C20.875 9.56539 20.4273 9.11768 19.875 9.11768V11.1177ZM4.21948 14.1801C3.66719 14.1801 3.21948 14.6278 3.21948 15.1801C3.21948 15.7324 3.66719 16.1801 4.21948 16.1801V14.1801ZM19.9695 16.1801C20.5218 16.1801 20.9695 15.7324 20.9695 15.1801C20.9695 14.6278 20.5218 14.1801 19.9695 14.1801V16.1801ZM20 12.3677C20 16.786 16.4183 20.3677 12 20.3677V22.3677C17.5228 22.3677 22 17.8905 22 12.3677H20ZM12 20.3677C7.58172 20.3677 4 16.786 4 12.3677H2C2 17.8905 6.47715 22.3677 12 22.3677V20.3677ZM4 12.3677C4 7.9494 7.58172 4.36768 12 4.36768V2.36768C6.47715 2.36768 2 6.84483 2 12.3677H4ZM12 4.36768C16.4183 4.36768 20 7.9494 20 12.3677H22C22 6.84483 17.5228 2.36768 12 2.36768V4.36768ZM12 20.3677C11.7872 20.3677 11.5057 20.2733 11.1624 19.9415C10.8143 19.605 10.4552 19.0698 10.1319 18.3308C9.48665 16.8559 9.0625 14.7484 9.0625 12.3677H7.0625C7.0625 14.9575 7.51979 17.35 8.29961 19.1325C8.68887 20.0222 9.1782 20.805 9.77228 21.3794C10.3712 21.9584 11.1255 22.3677 12 22.3677V20.3677ZM9.0625 12.3677C9.0625 9.98696 9.48665 7.87944 10.1319 6.40453C10.4552 5.66559 10.8143 5.13039 11.1624 4.79389C11.5057 4.46204 11.7872 4.36768 12 4.36768V2.36768C11.1255 2.36768 10.3712 2.77699 9.77228 3.35599C9.1782 3.93034 8.68887 4.71316 8.29961 5.6029C7.51979 7.38534 7.0625 9.77783 7.0625 12.3677H9.0625ZM12 22.3677C12.8745 22.3677 13.6288 21.9584 14.2277 21.3794C14.8218 20.805 15.3111 20.0222 15.7004 19.1325C16.4802 17.35 16.9375 14.9575 16.9375 12.3677H14.9375C14.9375 14.7484 14.5133 16.8559 13.8681 18.3308C13.5448 19.0698 13.1857 19.605 12.8376 19.9415C12.4943 20.2733 12.2128 20.3677 12 20.3677V22.3677ZM16.9375 12.3677C16.9375 9.77783 16.4802 7.38534 15.7004 5.6029C15.3111 4.71316 14.8218 3.93034 14.2277 3.35599C13.6288 2.77699 12.8745 2.36768 12 2.36768V4.36768C12.2128 4.36768 12.4943 4.46204 12.8376 4.79389C13.1857 5.13039 13.5448 5.66559 13.8681 6.40453C14.5133 7.87944 14.9375 9.98696 14.9375 12.3677H16.9375ZM4.125 11.1177H19.875V9.11768H4.125V11.1177ZM4.21948 16.1801H19.9695V14.1801H4.21948V16.1801Z" fill="#F53838"></path>
</svg>
