<?xml version="1.0" encoding="UTF-8"?>
<svg xmlns="http://www.w3.org/2000/svg" width="24" height="25" viewBox="0 0 24 25" fill="none">
  <path fill-rule="evenodd" clip-rule="evenodd" d="M3.8065 6.57409C4.70663 5.67423 5.92731 5.16871 7.2001 5.16871C8.47288 5.16871 9.69356 5.67423 10.5937 6.57409L12.0001 7.97929L13.4065 6.57409C13.8493 6.11564 14.3789 5.74996 14.9646 5.4984C15.5502 5.24684 16.18 5.11442 16.8174 5.10888C17.4547 5.10335 18.0868 5.22479 18.6767 5.46614C19.2666 5.70749 19.8025 6.06391 20.2532 6.51459C20.7039 6.96528 21.0603 7.5012 21.3016 8.09111C21.543 8.68101 21.6644 9.31307 21.6589 9.95041C21.6534 10.5878 21.5209 11.2176 21.2694 11.8032C21.0178 12.3888 20.6521 12.9185 20.1937 13.3613L12.0001 21.5561L3.8065 13.3613C2.90664 12.4612 2.40112 11.2405 2.40112 9.96769C2.40112 8.6949 2.90664 7.47422 3.8065 6.57409V6.57409Z" stroke="#F53838" stroke-width="2" stroke-linejoin="round"></path>
</svg>
