<?xml version="1.0" encoding="UTF-8"?>
<svg xmlns="http://www.w3.org/2000/svg" width="16" height="16" viewBox="0 0 16 16" fill="none">
  <path d="M14.6127 2.47225C12.9798 0.844102 10.3385 0.840177 8.70075 2.46346L8.00364 3.11059L7.30653 2.46346C5.02373 0.186389 1.13198 1.23441 0.301371 4.34991C-0.0841161 5.79581 0.331065 7.33755 1.39052 8.39434L7.42609 14.5177C7.74362 14.8402 8.26366 14.8402 8.58119 14.5177L14.6127 8.39839C16.2491 6.7627 16.2491 4.10996 14.6127 2.47427V2.47225ZM13.4644 7.2541L8.00364 12.7918L2.54088 7.24936C1.14645 5.84933 1.79052 3.46478 3.70021 2.95719C4.58294 2.72256 5.52386 2.97468 6.17102 3.61924C6.17777 3.626 6.18452 3.63275 6.19195 3.63883L7.45108 4.8115C7.76237 5.10151 8.24491 5.10151 8.5562 4.8115L9.81533 3.63883C9.82276 3.63275 9.82951 3.626 9.83626 3.61924C11.2353 2.22356 13.6206 2.86579 14.1298 4.77525C14.3661 5.66143 14.1116 6.60636 13.4623 7.2541H13.4644Z" fill="#70767F"></path>
</svg>
