<?xml version="1.0" encoding="UTF-8"?>
<svg xmlns="http://www.w3.org/2000/svg" width="88" height="17" viewBox="0 0 88 17" fill="none">
  <g clip-path="url(#clip0_488_746)">
    <g clip-path="url(#clip1_488_746)">
      <g clip-path="url(#clip2_488_746)">
        <mask id="mask0_488_746" style="mask-type:luminance" maskUnits="userSpaceOnUse" x="0" y="0" width="88" height="17">
          <path d="M88 0.839844H0V16.8398H88V0.839844Z" fill="white"></path>
        </mask>
        <g mask="url(#mask0_488_746)">
          <mask id="mask1_488_746" style="mask-type:luminance" maskUnits="userSpaceOnUse" x="0" y="-180" width="88" height="217">
            <path d="M88 -179.16H0V36.5958H88V-179.16Z" fill="white"></path>
          </mask>
          <g mask="url(#mask1_488_746)">
            <path d="M12.1614 36.3281C12.3624 36.3281 12.4629 36.2276 12.664 36.1271C12.7645 35.9261 12.7645 35.8257 12.7645 35.6246L12.0609 31.1017L15.3777 27.8855C15.5787 27.6845 15.5787 27.4835 15.5787 27.2824C15.4782 27.0814 15.2772 26.8804 15.0761 26.8804L10.4528 26.1769L8.34213 22.1565C8.14112 21.9555 7.9401 21.855 7.73909 21.855C7.53807 21.855 7.33706 21.9555 7.23655 22.1565L5.12589 26.1769L0.502538 26.8804C0.301523 26.8804 0.100508 27.0814 0 27.2824C0 27.584 0 27.785 0.201015 27.986L3.51777 31.2022L2.71371 35.6246C2.71371 35.8257 2.81421 36.1272 2.91472 36.2276C3.11574 36.3281 3.31675 36.4286 3.51777 36.2276L7.73909 34.2175L11.8599 36.3281H12.1614ZM30.2528 36.3281C30.4538 36.3281 30.5543 36.2276 30.7553 36.1271C30.8558 35.9261 30.8558 35.8257 30.8558 35.6246L30.1523 31.1017L33.469 27.8855C33.6701 27.6845 33.67 27.4835 33.67 27.2824C33.5695 27.0814 33.3685 26.8804 33.1675 26.8804L28.5442 26.1769L26.4335 22.1565C26.2325 21.9555 26.0315 21.855 25.8305 21.855C25.6294 21.855 25.4284 21.9555 25.3279 22.1565L23.2173 26.1769L18.5939 26.8804C18.3929 26.8804 18.1919 27.0814 18.0914 27.2824C18.0914 27.584 18.0914 27.785 18.2924 27.986L21.6091 31.2022L20.8051 35.6246C20.8051 35.8257 20.9056 36.1272 21.0061 36.2276C21.2071 36.3281 21.4081 36.4286 21.6091 36.2276L25.8305 34.2175L29.9513 36.3281H30.2528ZM48.3442 36.3281C48.5452 36.3281 48.6457 36.2276 48.8467 36.1271C48.9472 35.9261 48.9472 35.8257 48.9472 35.6246L48.2437 31.1017L51.5604 27.8855C51.7614 27.6845 51.7614 27.4835 51.7614 27.2824C51.6609 27.0814 51.4599 26.8804 51.2589 26.8804L46.6355 26.1769L44.5249 22.1565C44.3239 21.9555 44.1228 21.855 43.9218 21.855C43.7208 21.855 43.5198 21.9555 43.4193 22.1565L41.3086 26.1769L36.6853 26.8804C36.4843 26.8804 36.2832 27.0814 36.1827 27.2824C36.1827 27.584 36.1827 27.785 36.3838 27.986L39.7005 31.2022L38.8964 35.6246C38.8964 35.8257 38.997 36.1272 39.0975 36.2276C39.2985 36.3281 39.4995 36.4286 39.7005 36.2276L43.9218 34.2175L48.0426 36.3281H48.3442ZM66.4355 36.3281C66.6366 36.3281 66.7371 36.2276 66.9381 36.1271C67.0386 35.9261 67.0386 35.8257 67.0386 35.6246L66.335 31.1017L69.6518 27.8855C69.8528 27.6845 69.8528 27.4835 69.8528 27.2824C69.7523 27.0814 69.5513 26.8804 69.3503 26.8804L64.7269 26.1769L62.6162 22.1565C62.4152 21.9555 62.2142 21.855 62.0132 21.855C61.8122 21.855 61.6112 21.9555 61.5107 22.1565L59.4 26.1769L54.7766 26.8804C54.5756 26.8804 54.3746 27.0814 54.2741 27.2824C54.2741 27.584 54.2741 27.785 54.4751 27.986L57.7919 31.2022L56.9878 35.6246C56.9878 35.8257 57.0883 36.1272 57.1888 36.2276C57.3898 36.3281 57.5909 36.4286 57.7919 36.2276L62.0132 34.2175L66.134 36.3281H66.4355ZM84.5269 36.3281C84.7279 36.3281 84.8284 36.2276 85.0294 36.1271C85.1299 35.9261 85.1299 35.8257 85.1299 35.6246L84.4264 31.1017L87.7431 27.8855C87.9442 27.6845 87.9442 27.4835 87.9442 27.2824C87.8437 27.0814 87.6426 26.8804 87.4416 26.8804L82.8183 26.1769L80.7076 22.1565C80.5066 21.9555 80.3056 21.855 80.1046 21.855C79.9035 21.855 79.7025 21.9555 79.602 22.1565L77.4914 26.1769L72.868 26.8804C72.667 26.8804 72.466 27.0814 72.3655 27.2824C72.3655 27.584 72.3655 27.785 72.5665 27.986L75.8832 31.2022L75.0792 35.6246C75.0792 35.8257 75.1797 36.1272 75.2802 36.2276C75.4812 36.3281 75.6822 36.4286 75.8832 36.2276L80.1046 34.2175L84.2254 36.3281H84.5269ZM12.1614 16.2266C12.3624 16.2266 12.4629 16.1261 12.664 16.0257C12.7645 15.8246 12.7645 15.7242 12.7645 15.5231L12.0609 11.0002L15.3777 7.78401C15.5787 7.58299 15.5787 7.38197 15.5787 7.18095C15.4782 6.97995 15.2772 6.77893 15.0761 6.77893L10.4528 6.07538L8.34213 2.05507C8.14112 1.85405 7.9401 1.75356 7.73909 1.75356C7.53807 1.75356 7.33706 1.85405 7.23655 2.05507L5.12589 6.07538L0.502538 6.77893C0.301523 6.77893 0.100508 6.97995 0 7.18095C0 7.48248 0 7.6835 0.201015 7.88452L3.51777 11.1007L2.71371 15.5231C2.71371 15.7242 2.81421 16.0257 2.91472 16.1261C3.11574 16.2266 3.31675 16.3271 3.51777 16.1261L7.73909 14.1159L11.8599 16.2266H12.1614ZM30.2528 16.2266C30.4538 16.2266 30.5543 16.1261 30.7553 16.0257C30.8558 15.8246 30.8558 15.7242 30.8558 15.5231L30.1523 11.0002L33.469 7.78401C33.6701 7.58299 33.67 7.38197 33.67 7.18095C33.5695 6.97995 33.3685 6.77893 33.1675 6.77893L28.5442 6.07538L26.4335 2.05507C26.2325 1.85405 26.0315 1.75356 25.8305 1.75356C25.6294 1.75356 25.4284 1.85405 25.3279 2.05507L23.2173 6.07538L18.5939 6.77893C18.3929 6.77893 18.1919 6.97995 18.0914 7.18095C18.0914 7.48248 18.0914 7.6835 18.2924 7.88452L21.6091 11.1007L20.8051 15.5231C20.8051 15.7242 20.9056 16.0257 21.0061 16.1261C21.2071 16.2266 21.4081 16.3271 21.6091 16.1261L25.8305 14.1159L29.9513 16.2266H30.2528ZM48.3442 16.2266C48.5452 16.2266 48.6457 16.1261 48.8467 16.0257C48.9472 15.8246 48.9472 15.7242 48.9472 15.5231L48.2437 11.0002L51.5604 7.78401C51.7614 7.58299 51.7614 7.38197 51.7614 7.18095C51.6609 6.97995 51.4599 6.77893 51.2589 6.77893L46.6355 6.07538L44.5249 2.05507C44.3239 1.85405 44.1228 1.75356 43.9218 1.75356C43.7208 1.75356 43.5198 1.85405 43.4193 2.05507L41.3086 6.07538L36.6853 6.77893C36.4843 6.77893 36.2832 6.97995 36.1827 7.18095C36.1827 7.48248 36.1827 7.6835 36.3838 7.88452L39.7005 11.1007L38.8964 15.5231C38.8964 15.7242 38.997 16.0257 39.0975 16.1261C39.2985 16.2266 39.4995 16.3271 39.7005 16.1261L43.9218 14.1159L48.0426 16.2266H48.3442ZM66.4355 16.2266C66.6366 16.2266 66.7371 16.1261 66.9381 16.0257C67.0386 15.8246 67.0386 15.7242 67.0386 15.5231L66.335 11.0002L69.6518 7.78401C69.8528 7.58299 69.8528 7.38197 69.8528 7.18095C69.7523 6.97995 69.5513 6.77893 69.3503 6.77893L64.7269 6.07538L62.6162 2.05507C62.4152 1.85405 62.2142 1.75356 62.0132 1.75356C61.8122 1.75356 61.6112 1.85405 61.5107 2.05507L59.4 6.07538L54.7766 6.77893C54.5756 6.77893 54.3746 6.97995 54.2741 7.18095C54.2741 7.48248 54.2741 7.6835 54.4751 7.88452L57.7919 11.1007L56.9878 15.5231C56.9878 15.7242 57.0883 16.0257 57.1888 16.1261C57.3898 16.2266 57.5909 16.3271 57.7919 16.1261L62.0132 14.1159L66.134 16.2266H66.4355ZM84.5269 16.2266C84.7279 16.2266 84.8284 16.1261 85.0294 16.0257C85.1299 15.8246 85.1299 15.7242 85.1299 15.5231L84.4264 11.0002L87.7431 7.78401C87.9442 7.58299 87.9442 7.38197 87.9442 7.18095C87.8437 6.97995 87.6426 6.77893 87.4416 6.77893L82.8183 6.07538L80.7076 2.05507C80.5066 1.85405 80.3056 1.75356 80.1046 1.75356C79.9035 1.75356 79.7025 1.85405 79.602 2.05507L77.4914 6.07538L72.868 6.77893C72.667 6.77893 72.466 6.97995 72.3655 7.18095C72.3655 7.48248 72.3655 7.6835 72.5665 7.88452L75.8832 11.1007L75.0792 15.5231C75.0792 15.7242 75.1797 16.0257 75.2802 16.1261C75.4812 16.2266 75.6822 16.3271 75.8832 16.1261L80.1046 14.1159L84.2254 16.2266H84.5269ZM80.1046 12.8093C80.0041 12.8093 80.1046 3.7637 80.1046 3.7637L81.8132 6.97995C81.9137 7.18097 82.1147 7.28146 82.3157 7.28146L86.0345 7.78401L83.4213 10.3972C83.1198 10.4977 83.0193 10.6987 83.1198 10.8997L83.7228 14.518C83.7228 14.518 80.2051 12.8093 80.1046 12.8093ZM12.1614 -3.87488C12.3624 -3.87488 12.4629 -3.97537 12.664 -4.07588C12.7645 -4.27689 12.7645 -4.37741 12.7645 -4.57843L12.0609 -9.10127L15.3777 -12.3176C15.5787 -12.5186 15.5787 -12.7196 15.5787 -12.9206C15.4782 -13.1216 15.2772 -13.3226 15.0761 -13.3226L10.4528 -14.0262L8.34213 -18.0464C8.14112 -18.2475 7.9401 -18.348 7.73909 -18.348C7.53807 -18.348 7.33706 -18.2475 7.23655 -18.0464L5.12589 -14.0262L0.502538 -13.3226C0.301523 -13.3226 0.100508 -13.1216 0 -12.9206C0 -12.6191 0 -12.4181 0.201015 -12.2171L3.51777 -9.00076L2.71371 -4.57843C2.71371 -4.37741 2.81421 -4.0759 2.91472 -3.97539C3.11574 -3.87488 3.31675 -3.77437 3.51777 -3.97539L7.73909 -5.98553L11.8599 -3.87488H12.1614ZM30.2528 -3.87488C30.4538 -3.87488 30.5543 -3.97537 30.7553 -4.07588C30.8558 -4.27689 30.8558 -4.37741 30.8558 -4.57843L30.1523 -9.10127L33.469 -12.3176C33.6701 -12.5186 33.67 -12.7196 33.67 -12.9206C33.5695 -13.1216 33.3685 -13.3226 33.1675 -13.3226L28.5442 -14.0262L26.4335 -18.0464C26.2325 -18.2475 26.0315 -18.348 25.8305 -18.348C25.6294 -18.348 25.4284 -18.2475 25.3279 -18.0464L23.2173 -14.0262L18.5939 -13.3226C18.3929 -13.3226 18.1919 -13.1216 18.0914 -12.9206C18.0914 -12.6191 18.0914 -12.4181 18.2924 -12.2171L21.6091 -9.00076L20.8051 -4.57843C20.8051 -4.37741 20.9056 -4.0759 21.0061 -3.97539C21.2071 -3.87488 21.4081 -3.77437 21.6091 -3.97539L25.8305 -5.98553L29.9513 -3.87488H30.2528ZM48.3442 -3.87488C48.5452 -3.87488 48.6457 -3.97537 48.8467 -4.07588C48.9472 -4.27689 48.9472 -4.37741 48.9472 -4.57843L48.2437 -9.10127L51.5604 -12.3176C51.7614 -12.5186 51.7614 -12.7196 51.7614 -12.9206C51.6609 -13.1216 51.4599 -13.3226 51.2589 -13.3226L46.6355 -14.0262L44.5249 -18.0464C44.3239 -18.2475 44.1228 -18.348 43.9218 -18.348C43.7208 -18.348 43.5198 -18.2475 43.4193 -18.0464L41.3086 -14.0262L36.6853 -13.3226C36.4843 -13.3226 36.2832 -13.1216 36.1827 -12.9206C36.1827 -12.6191 36.1827 -12.4181 36.3838 -12.2171L39.7005 -9.00076L38.8964 -4.57843C38.8964 -4.37741 38.997 -4.0759 39.0975 -3.97539C39.2985 -3.87488 39.4995 -3.77437 39.7005 -3.97539L43.9218 -5.98553L48.0426 -3.87488H48.3442ZM66.4355 -3.87488C66.6366 -3.87488 66.7371 -3.97537 66.9381 -4.07588C67.0386 -4.27689 67.0386 -4.37741 67.0386 -4.57843L66.335 -9.10127L69.6518 -12.3176C69.8528 -12.5186 69.8528 -12.7196 69.8528 -12.9206C69.7523 -13.1216 69.5513 -13.3226 69.3503 -13.3226L64.7269 -14.0262L62.6162 -18.0464C62.4152 -18.2475 62.2142 -18.348 62.0132 -18.348C61.8122 -18.348 61.6112 -18.2475 61.5107 -18.0464L59.4 -14.0262L54.7766 -13.3226C54.5756 -13.3226 54.3746 -13.1216 54.2741 -12.9206C54.2741 -12.6191 54.2741 -12.4181 54.4751 -12.2171L57.7919 -9.00076L56.9878 -4.57843C56.9878 -4.37741 57.0883 -4.0759 57.1888 -3.97539C57.3898 -3.87488 57.5909 -3.77437 57.7919 -3.97539L62.0132 -5.98553L66.134 -3.87488H66.4355ZM84.5269 -3.87488C84.7279 -3.87488 84.8284 -3.97537 85.0294 -4.07588C85.1299 -4.27689 85.1299 -4.37741 85.1299 -4.57843L84.4264 -9.10127L87.7431 -12.3176C87.9442 -12.5186 87.9442 -12.7196 87.9442 -12.9206C87.8437 -13.1216 87.6426 -13.3226 87.4416 -13.3226L82.8183 -14.0262L80.7076 -18.0464C80.5066 -18.2475 80.3056 -18.348 80.1046 -18.348C79.9035 -18.348 79.7025 -18.2475 79.602 -18.0464L77.4914 -14.0262L72.868 -13.3226C72.667 -13.3226 72.466 -13.1216 72.3655 -12.9206C72.3655 -12.6191 72.3655 -12.4181 72.5665 -12.2171L75.8832 -9.00076L75.0792 -4.57843C75.0792 -4.37741 75.1797 -4.0759 75.2802 -3.97539C75.4812 -3.87488 75.6822 -3.77437 75.8832 -3.97539L80.1046 -5.98553L84.2254 -3.87488H84.5269ZM83.7228 -5.5835L80.4061 -7.29213C80.2051 -7.39264 80.0041 -7.39264 79.803 -7.29213L76.4863 -5.5835L77.0893 -9.20175C77.0893 -9.40276 77.0893 -9.60376 76.8883 -9.70436L74.2751 -12.2171L77.9939 -12.7196C78.1949 -12.7196 78.3959 -12.8201 78.4964 -13.0211L80.1046 -16.4384L81.8132 -13.2221C81.9137 -13.0211 82.1147 -12.9206 82.3157 -12.9206L86.0345 -12.4181L83.4213 -9.80486C83.1198 -9.60376 83.0193 -9.40276 83.1198 -9.20175L83.7228 -5.5835ZM12.1614 -23.9763C12.3624 -23.9763 12.4629 -24.0769 12.664 -24.1775C12.7645 -24.3785 12.7645 -24.479 12.7645 -24.68L12.0609 -29.2028L15.3777 -32.4191C15.5787 -32.6201 15.5787 -32.8211 15.5787 -33.0221C15.4782 -33.2231 15.2772 -33.4242 15.0761 -33.4242L10.4528 -34.1277L8.34213 -38.1479C8.14112 -38.349 7.9401 -38.4495 7.73909 -38.4495C7.53807 -38.4495 7.33706 -38.349 7.23655 -38.1479L5.12589 -34.1277L0.502538 -33.4242C0.301523 -33.4242 0.100508 -33.2231 0 -33.0221C0 -32.7206 0 -32.5196 0.201015 -32.3186L3.51777 -29.1023L2.71371 -24.68C2.71371 -24.479 2.81421 -24.1775 2.91472 -24.0769C3.11574 -23.9765 3.31675 -23.8759 3.51777 -24.0769L7.73909 -26.0871L11.8599 -23.9763H12.1614ZM30.2528 -23.9763C30.4538 -23.9763 30.5543 -24.0769 30.7553 -24.1775C30.8558 -24.3785 30.8558 -24.479 30.8558 -24.68L30.1523 -29.2028L33.469 -32.4191C33.6701 -32.6201 33.67 -32.8211 33.67 -33.0221C33.5695 -33.2231 33.3685 -33.4242 33.1675 -33.4242L28.5442 -34.1277L26.4335 -38.1479C26.2325 -38.349 26.0315 -38.4495 25.8305 -38.4495C25.6294 -38.4495 25.4284 -38.349 25.3279 -38.1479L23.2173 -34.1277L18.5939 -33.4242C18.3929 -33.4242 18.1919 -33.2231 18.0914 -33.0221C18.0914 -32.7206 18.0914 -32.5196 18.2924 -32.3186L21.6091 -29.1023L20.8051 -24.68C20.8051 -24.479 20.9056 -24.1775 21.0061 -24.0769C21.2071 -23.9765 21.4081 -23.8759 21.6091 -24.0769L25.8305 -26.0871L29.9513 -23.9763H30.2528ZM48.3442 -23.9763C48.5452 -23.9763 48.6457 -24.0769 48.8467 -24.1775C48.9472 -24.3785 48.9472 -24.479 48.9472 -24.68L48.2437 -29.2028L51.5604 -32.4191C51.7614 -32.6201 51.7614 -32.8211 51.7614 -33.0221C51.6609 -33.2231 51.4599 -33.4242 51.2589 -33.4242L46.6355 -34.1277L44.5249 -38.1479C44.3239 -38.349 44.1228 -38.4495 43.9218 -38.4495C43.7208 -38.4495 43.5198 -38.349 43.4193 -38.1479L41.3086 -34.1277L36.6853 -33.4242C36.4843 -33.4242 36.2832 -33.2231 36.1827 -33.0221C36.1827 -32.7206 36.1827 -32.5196 36.3838 -32.3186L39.7005 -29.1023L38.8964 -24.68C38.8964 -24.479 38.997 -24.1775 39.0975 -24.0769C39.2985 -23.9765 39.4995 -23.8759 39.7005 -24.0769L43.9218 -26.0871L48.0426 -23.9763H48.3442ZM66.4355 -23.9763C66.6366 -23.9763 66.7371 -24.0769 66.9381 -24.1775C67.0386 -24.3785 67.0386 -24.479 67.0386 -24.68L66.335 -29.2028L69.6518 -32.4191C69.8528 -32.6201 69.8528 -32.8211 69.8528 -33.0221C69.7523 -33.2231 69.5513 -33.4242 69.3503 -33.4242L64.7269 -34.1277L62.6162 -38.1479C62.4152 -38.349 62.2142 -38.4495 62.0132 -38.4495C61.8122 -38.4495 61.6112 -38.349 61.5107 -38.1479L59.4 -34.1277L54.7766 -33.4242C54.5756 -33.4242 54.3746 -33.2231 54.2741 -33.0221C54.2741 -32.7206 54.2741 -32.5196 54.4751 -32.3186L57.7919 -29.1023L56.9878 -24.68C56.9878 -24.479 57.0883 -24.1775 57.1888 -24.0769C57.3898 -23.9765 57.5909 -23.8759 57.7919 -24.0769L62.0132 -26.0871L66.134 -23.9763H66.4355ZM62.0132 -27.3937C61.9127 -27.3937 62.0132 -36.4394 62.0132 -36.4394L63.7218 -33.2231C63.8223 -33.022 64.0233 -32.9216 64.2244 -32.9216L67.9431 -32.4191L65.3299 -29.8059C65.0284 -29.7054 64.9279 -29.5043 65.0284 -29.3033L65.6315 -25.6851C65.6315 -25.6851 62.1137 -27.3937 62.0132 -27.3937ZM84.5269 -23.9763C84.7279 -23.9763 84.8284 -24.0769 85.0294 -24.1775C85.1299 -24.3785 85.1299 -24.479 85.1299 -24.68L84.4264 -29.2028L87.7431 -32.4191C87.9442 -32.6201 87.9442 -32.8211 87.9442 -33.0221C87.8437 -33.2231 87.6426 -33.4242 87.4416 -33.4242L82.8183 -34.1277L80.7076 -38.1479C80.5066 -38.349 80.3056 -38.4495 80.1046 -38.4495C79.9035 -38.4495 79.7025 -38.349 79.602 -38.1479L77.4914 -34.1277L72.868 -33.4242C72.667 -33.4242 72.466 -33.2231 72.3655 -33.0221C72.3655 -32.7206 72.3655 -32.5196 72.5665 -32.3186L75.8832 -29.1023L75.0792 -24.68C75.0792 -24.479 75.1797 -24.1775 75.2802 -24.0769C75.4812 -23.9765 75.6822 -23.8759 75.8832 -24.0769L80.1046 -26.0871L84.2254 -23.9763H84.5269ZM83.7228 -25.6851L80.4061 -27.3937C80.2051 -27.4942 80.0041 -27.4942 79.803 -27.3937L76.4863 -25.6851L77.0893 -29.3033C77.0893 -29.5043 77.0893 -29.7054 76.8883 -29.8059L74.2751 -32.3186L77.9939 -32.8211C78.1949 -32.8211 78.3959 -32.9216 78.4964 -33.1226L80.1046 -36.5399L81.8132 -33.3237C81.9137 -33.1226 82.1147 -33.0221 82.3157 -33.0221L86.0345 -32.5196L83.4213 -29.9064C83.1198 -29.7054 83.0193 -29.5043 83.1198 -29.3033L83.7228 -25.6851ZM12.1614 -44.078C12.3624 -44.078 12.4629 -44.1785 12.664 -44.279C12.7645 -44.48 12.7645 -44.5805 12.7645 -44.7815L12.0609 -49.3043L15.3777 -52.5206C15.5787 -52.7215 15.5787 -52.9226 15.5787 -53.1237C15.4782 -53.3247 15.2772 -53.5257 15.0761 -53.5257L10.4528 -54.2292L8.34213 -58.2495C8.14112 -58.4506 7.9401 -58.5511 7.73909 -58.5511C7.53807 -58.5511 7.33706 -58.4506 7.23655 -58.2495L5.12589 -54.2292L0.502538 -53.5257C0.301523 -53.5257 0.100508 -53.3247 0 -53.1237C0 -52.8221 0 -52.6211 0.201015 -52.4201L3.51777 -49.2039L2.71371 -44.7815C2.71371 -44.5805 2.81421 -44.2789 2.91472 -44.1785C3.11574 -44.078 3.31675 -43.9774 3.51777 -44.1785L7.73909 -46.1886L11.8599 -44.078H12.1614ZM30.2528 -44.078C30.4538 -44.078 30.5543 -44.1785 30.7553 -44.279C30.8558 -44.48 30.8558 -44.5805 30.8558 -44.7815L30.1523 -49.3043L33.469 -52.5206C33.6701 -52.7215 33.67 -52.9226 33.67 -53.1237C33.5695 -53.3247 33.3685 -53.5257 33.1675 -53.5257L28.5442 -54.2292L26.4335 -58.2495C26.2325 -58.4506 26.0315 -58.5511 25.8305 -58.5511C25.6294 -58.5511 25.4284 -58.4506 25.3279 -58.2495L23.2173 -54.2292L18.5939 -53.5257C18.3929 -53.5257 18.1919 -53.3247 18.0914 -53.1237C18.0914 -52.8221 18.0914 -52.6211 18.2924 -52.4201L21.6091 -49.2039L20.8051 -44.7815C20.8051 -44.5805 20.9056 -44.2789 21.0061 -44.1785C21.2071 -44.078 21.4081 -43.9774 21.6091 -44.1785L25.8305 -46.1886L29.9513 -44.078H30.2528ZM48.3442 -44.078C48.5452 -44.078 48.6457 -44.1785 48.8467 -44.279C48.9472 -44.48 48.9472 -44.5805 48.9472 -44.7815L48.2437 -49.3043L51.5604 -52.5206C51.7614 -52.7215 51.7614 -52.9226 51.7614 -53.1237C51.6609 -53.3247 51.4599 -53.5257 51.2589 -53.5257L46.6355 -54.2292L44.5249 -58.2495C44.3239 -58.4506 44.1228 -58.5511 43.9218 -58.5511C43.7208 -58.5511 43.5198 -58.4506 43.4193 -58.2495L41.3086 -54.2292L36.6853 -53.5257C36.4843 -53.5257 36.2832 -53.3247 36.1827 -53.1237C36.1827 -52.8221 36.1827 -52.6211 36.3838 -52.4201L39.7005 -49.2039L38.8964 -44.7815C38.8964 -44.5805 38.997 -44.2789 39.0975 -44.1785C39.2985 -44.078 39.4995 -43.9774 39.7005 -44.1785L43.9218 -46.1886L48.0426 -44.078H48.3442ZM66.4355 -44.078C66.6366 -44.078 66.7371 -44.1785 66.9381 -44.279C67.0386 -44.48 67.0386 -44.5805 67.0386 -44.7815L66.335 -49.3043L69.6518 -52.5206C69.8528 -52.7215 69.8528 -52.9226 69.8528 -53.1237C69.7523 -53.3247 69.5513 -53.5257 69.3503 -53.5257L64.7269 -54.2292L62.6162 -58.2495C62.4152 -58.4506 62.2142 -58.5511 62.0132 -58.5511C61.8122 -58.5511 61.6112 -58.4506 61.5107 -58.2495L59.4 -54.2292L54.7766 -53.5257C54.5756 -53.5257 54.3746 -53.3247 54.2741 -53.1237C54.2741 -52.8221 54.2741 -52.6211 54.4751 -52.4201L57.7919 -49.2039L56.9878 -44.7815C56.9878 -44.5805 57.0883 -44.2789 57.1888 -44.1785C57.3898 -44.078 57.5909 -43.9774 57.7919 -44.1785L62.0132 -46.1886L66.134 -44.078H66.4355ZM65.6315 -45.7866L62.3147 -47.4951C62.1137 -47.5956 61.9127 -47.5956 61.7117 -47.4951L58.3949 -45.7866L58.998 -49.4049C58.998 -49.6059 58.998 -49.8069 58.797 -49.9073L56.1838 -52.4201L59.9025 -52.9226C60.1036 -52.9226 60.3046 -53.023 60.4051 -53.2242L62.0132 -56.6414L63.7218 -53.4252C63.8223 -53.2242 64.0233 -53.1237 64.2244 -53.1237L67.9431 -52.6211L65.3299 -50.0079C65.0284 -49.8069 64.9279 -49.6059 65.0284 -49.4049L65.6315 -45.7866ZM84.5269 -44.078C84.7279 -44.078 84.8284 -44.1785 85.0294 -44.279C85.1299 -44.48 85.1299 -44.5805 85.1299 -44.7815L84.4264 -49.3043L87.7431 -52.5206C87.9442 -52.7215 87.9442 -52.9226 87.9442 -53.1237C87.8437 -53.3247 87.6426 -53.5257 87.4416 -53.5257L82.8183 -54.2292L80.7076 -58.2495C80.5066 -58.4506 80.3056 -58.5511 80.1046 -58.5511C79.9035 -58.5511 79.7025 -58.4506 79.602 -58.2495L77.4914 -54.2292L72.868 -53.5257C72.667 -53.5257 72.466 -53.3247 72.3655 -53.1237C72.3655 -52.8221 72.3655 -52.6211 72.5665 -52.4201L75.8832 -49.2039L75.0792 -44.7815C75.0792 -44.5805 75.1797 -44.2789 75.2802 -44.1785C75.4812 -44.078 75.6822 -43.9774 75.8832 -44.1785L80.1046 -46.1886L84.2254 -44.078H84.5269ZM83.7228 -45.7866L80.4061 -47.4951C80.2051 -47.5956 80.0041 -47.5956 79.803 -47.4951L76.4863 -45.7866L77.0893 -49.4049C77.0893 -49.6059 77.0893 -49.8069 76.8883 -49.9073L74.2751 -52.4201L77.9939 -52.9226C78.1949 -52.9226 78.3959 -53.023 78.4964 -53.2242L80.1046 -56.6414L81.8132 -53.4252C81.9137 -53.2242 82.1147 -53.1237 82.3157 -53.1237L86.0345 -52.6211L83.4213 -50.0079C83.1198 -49.8069 83.0193 -49.6059 83.1198 -49.4049L83.7228 -45.7866ZM12.1614 -64.1795C12.3624 -64.1795 12.4629 -64.28 12.664 -64.3805C12.7645 -64.5815 12.7645 -64.682 12.7645 -64.883L12.0609 -69.4059L15.3777 -72.6221C15.5787 -72.8231 15.5787 -73.0242 15.5787 -73.2252C15.4782 -73.4262 15.2772 -73.6272 15.0761 -73.6272L10.4528 -74.3308L8.34213 -78.3511C8.14112 -78.5521 7.9401 -78.6526 7.73909 -78.6526C7.53807 -78.6526 7.33706 -78.5521 7.23655 -78.3511L5.12589 -74.3308L0.502538 -73.6272C0.301523 -73.6272 0.100508 -73.4262 0 -73.2252C0 -72.9237 0 -72.7225 0.201015 -72.5216L3.51777 -69.3054L2.71371 -64.883C2.71371 -64.682 2.81421 -64.3805 2.91472 -64.28C3.11574 -64.1795 3.31675 -64.079 3.51777 -64.28L7.73909 -66.2901L11.8599 -64.1795H12.1614ZM30.2528 -64.1795C30.4538 -64.1795 30.5543 -64.28 30.7553 -64.3805C30.8558 -64.5815 30.8558 -64.682 30.8558 -64.883L30.1523 -69.4059L33.469 -72.6221C33.6701 -72.8231 33.67 -73.0242 33.67 -73.2252C33.5695 -73.4262 33.3685 -73.6272 33.1675 -73.6272L28.5442 -74.3308L26.4335 -78.3511C26.2325 -78.5521 26.0315 -78.6526 25.8305 -78.6526C25.6294 -78.6526 25.4284 -78.5521 25.3279 -78.3511L23.2173 -74.3308L18.5939 -73.6272C18.3929 -73.6272 18.1919 -73.4262 18.0914 -73.2252C18.0914 -72.9237 18.0914 -72.7225 18.2924 -72.5216L21.6091 -69.3054L20.8051 -64.883C20.8051 -64.682 20.9056 -64.3805 21.0061 -64.28C21.2071 -64.1795 21.4081 -64.079 21.6091 -64.28L25.8305 -66.2901L29.9513 -64.1795H30.2528ZM48.3442 -64.1795C48.5452 -64.1795 48.6457 -64.28 48.8467 -64.3805C48.9472 -64.5815 48.9472 -64.682 48.9472 -64.883L48.2437 -69.4059L51.5604 -72.6221C51.7614 -72.8231 51.7614 -73.0242 51.7614 -73.2252C51.6609 -73.4262 51.4599 -73.6272 51.2589 -73.6272L46.6355 -74.3308L44.5249 -78.3511C44.3239 -78.5521 44.1228 -78.6526 43.9218 -78.6526C43.7208 -78.6526 43.5198 -78.5521 43.4193 -78.3511L41.3086 -74.3308L36.6853 -73.6272C36.4843 -73.6272 36.2832 -73.4262 36.1827 -73.2252C36.1827 -72.9237 36.1827 -72.7225 36.3838 -72.5216L39.7005 -69.3054L38.8964 -64.883C38.8964 -64.682 38.997 -64.3805 39.0975 -64.28C39.2985 -64.1795 39.4995 -64.079 39.7005 -64.28L43.9218 -66.2901L48.0426 -64.1795H48.3442ZM43.9218 -67.5967C43.8213 -67.5967 43.9218 -76.6424 43.9218 -76.6424L45.6305 -73.4262C45.731 -73.2252 45.932 -73.1247 46.133 -73.1247L49.8518 -72.6221L47.2386 -70.0089C46.9371 -69.9084 46.8365 -69.7074 46.9371 -69.5064L47.5401 -65.8881C47.5401 -65.8881 44.0223 -67.5967 43.9218 -67.5967ZM66.4355 -64.1795C66.6366 -64.1795 66.7371 -64.28 66.9381 -64.3805C67.0386 -64.5815 67.0386 -64.682 67.0386 -64.883L66.335 -69.4059L69.6518 -72.6221C69.8528 -72.8231 69.8528 -73.0242 69.8528 -73.2252C69.7523 -73.4262 69.5513 -73.6272 69.3503 -73.6272L64.7269 -74.3308L62.6162 -78.3511C62.4152 -78.5521 62.2142 -78.6526 62.0132 -78.6526C61.8122 -78.6526 61.6112 -78.5521 61.5107 -78.3511L59.4 -74.3308L54.7766 -73.6272C54.5756 -73.6272 54.3746 -73.4262 54.2741 -73.2252C54.2741 -72.9237 54.2741 -72.7225 54.4751 -72.5216L57.7919 -69.3054L56.9878 -64.883C56.9878 -64.682 57.0883 -64.3805 57.1888 -64.28C57.3898 -64.1795 57.5909 -64.079 57.7919 -64.28L62.0132 -66.2901L66.134 -64.1795H66.4355ZM65.6315 -65.8881L62.3147 -67.5967C62.1137 -67.6973 61.9127 -67.6973 61.7117 -67.5967L58.3949 -65.8881L58.998 -69.5064C58.998 -69.7074 58.998 -69.9084 58.797 -70.0089L56.1838 -72.5216L59.9025 -73.0242C60.1036 -73.0242 60.3046 -73.1247 60.4051 -73.3257L62.0132 -76.7429L63.7218 -73.5267C63.8223 -73.3257 64.0233 -73.2252 64.2244 -73.2252L67.9431 -72.7226L65.3299 -70.1094C65.0284 -69.9084 64.9279 -69.7074 65.0284 -69.5064L65.6315 -65.8881ZM84.5269 -64.1795C84.7279 -64.1795 84.8284 -64.28 85.0294 -64.3805C85.1299 -64.5815 85.1299 -64.682 85.1299 -64.883L84.4264 -69.4059L87.7431 -72.6221C87.9442 -72.8231 87.9442 -73.0242 87.9442 -73.2252C87.8437 -73.4262 87.6426 -73.6272 87.4416 -73.6272L82.8183 -74.3308L80.7076 -78.3511C80.5066 -78.5521 80.3056 -78.6526 80.1046 -78.6526C79.9035 -78.6526 79.7025 -78.5521 79.602 -78.3511L77.4914 -74.3308L72.868 -73.6272C72.667 -73.6272 72.466 -73.4262 72.3655 -73.2252C72.3655 -72.9237 72.3655 -72.7225 72.5665 -72.5216L75.8832 -69.3054L75.0792 -64.883C75.0792 -64.682 75.1797 -64.3805 75.2802 -64.28C75.4812 -64.1795 75.6822 -64.079 75.8832 -64.28L80.1046 -66.2901L84.2254 -64.1795H84.5269ZM83.7228 -65.8881L80.4061 -67.5967C80.2051 -67.6973 80.0041 -67.6973 79.803 -67.5967L76.4863 -65.8881L77.0893 -69.5064C77.0893 -69.7074 77.0893 -69.9084 76.8883 -70.0089L74.2751 -72.5216L77.9939 -73.0242C78.1949 -73.0242 78.3959 -73.1247 78.4964 -73.3257L80.1046 -76.7429L81.8132 -73.5267C81.9137 -73.3257 82.1147 -73.2252 82.3157 -73.2252L86.0345 -72.7226L83.4213 -70.1094C83.1198 -69.9084 83.0193 -69.7074 83.1198 -69.5064L83.7228 -65.8881ZM12.1614 -84.281C12.3624 -84.281 12.4629 -84.3815 12.664 -84.482C12.7645 -84.683 12.7645 -84.7836 12.7645 -84.9846L12.0609 -89.5074L15.3777 -92.7237C15.5787 -92.9247 15.5787 -93.1257 15.5787 -93.3267C15.4782 -93.5276 15.2772 -93.7287 15.0761 -93.7287L10.4528 -94.4323L8.34213 -98.4526C8.14112 -98.6535 7.9401 -98.7541 7.73909 -98.7541C7.53807 -98.7541 7.33706 -98.6535 7.23655 -98.4526L5.12589 -94.4323L0.502538 -93.7287C0.301523 -93.7287 0.100508 -93.5276 0 -93.3267C0 -93.0252 0 -92.8242 0.201015 -92.6231L3.51777 -89.4069L2.71371 -84.9846C2.71371 -84.7836 2.81421 -84.482 2.91472 -84.3815C3.11574 -84.281 3.31675 -84.1805 3.51777 -84.3815L7.73909 -86.3917L11.8599 -84.281H12.1614ZM30.2528 -84.281C30.4538 -84.281 30.5543 -84.3815 30.7553 -84.482C30.8558 -84.683 30.8558 -84.7836 30.8558 -84.9846L30.1523 -89.5074L33.469 -92.7237C33.6701 -92.9247 33.67 -93.1257 33.67 -93.3267C33.5695 -93.5276 33.3685 -93.7287 33.1675 -93.7287L28.5442 -94.4323L26.4335 -98.4526C26.2325 -98.6535 26.0315 -98.7541 25.8305 -98.7541C25.6294 -98.7541 25.4284 -98.6535 25.3279 -98.4526L23.2173 -94.4323L18.5939 -93.7287C18.3929 -93.7287 18.1919 -93.5276 18.0914 -93.3267C18.0914 -93.0252 18.0914 -92.8242 18.2924 -92.6231L21.6091 -89.4069L20.8051 -84.9846C20.8051 -84.7836 20.9056 -84.482 21.0061 -84.3815C21.2071 -84.281 21.4081 -84.1805 21.6091 -84.3815L25.8305 -86.3917L29.9513 -84.281H30.2528ZM66.4355 -84.281C66.6366 -84.281 66.7371 -84.3815 66.9381 -84.482C67.0386 -84.683 67.0386 -84.7836 67.0386 -84.9846L66.335 -89.5074L69.6518 -92.7237C69.8528 -92.9247 69.8528 -93.1257 69.8528 -93.3267C69.7523 -93.5276 69.5513 -93.7287 69.3503 -93.7287L64.7269 -94.4323L62.6162 -98.4526C62.4152 -98.6535 62.2142 -98.7541 62.0132 -98.7541C61.8122 -98.7541 61.6112 -98.6535 61.5107 -98.4526L59.4 -94.4323L54.7766 -93.7287C54.5756 -93.7287 54.3746 -93.5276 54.2741 -93.3267C54.2741 -93.0252 54.2741 -92.8242 54.4751 -92.6231L57.7919 -89.4069L56.9878 -84.9846C56.9878 -84.7836 57.0883 -84.482 57.1888 -84.3815C57.3898 -84.281 57.5909 -84.1805 57.7919 -84.3815L62.0132 -86.3917L66.134 -84.281H66.4355ZM65.6315 -85.9896L62.3147 -87.6983C62.1137 -87.7988 61.9127 -87.7988 61.7117 -87.6983L58.3949 -85.9896L58.998 -89.6079C58.998 -89.8089 58.998 -90.0099 58.797 -90.1104L56.1838 -92.6231L59.9025 -93.1257C60.1036 -93.1257 60.3046 -93.2262 60.4051 -93.4272L62.0132 -96.8445L63.7218 -93.6282C63.8223 -93.4272 64.0233 -93.3267 64.2244 -93.3267L67.9431 -92.8242L65.3299 -90.211C65.0284 -90.0098 64.9279 -89.8089 65.0284 -89.6079L65.6315 -85.9896ZM48.3442 -84.281C48.5452 -84.281 48.6457 -84.3815 48.8467 -84.482C48.9472 -84.683 48.9472 -84.7836 48.9472 -84.9846L48.2437 -89.5074L51.5604 -92.7237C51.7614 -92.9247 51.7614 -93.1257 51.7614 -93.3267C51.6609 -93.5276 51.4599 -93.7287 51.2589 -93.7287L46.6355 -94.4323L44.5249 -98.4526C44.3239 -98.6535 44.1228 -98.7541 43.9218 -98.7541C43.7208 -98.7541 43.5198 -98.6535 43.4193 -98.4526L41.3086 -94.4323L36.6853 -93.7287C36.4843 -93.7287 36.2832 -93.5276 36.1827 -93.3267C36.1827 -93.0252 36.1827 -92.8242 36.3838 -92.6231L39.7005 -89.4069L38.8964 -84.9846C38.8964 -84.7836 38.997 -84.482 39.0975 -84.3815C39.2985 -84.281 39.4995 -84.1805 39.7005 -84.3815L43.9218 -86.3917L48.0426 -84.281H48.3442ZM47.5401 -85.9896L44.2233 -87.6983C44.0223 -87.7988 43.8213 -87.7988 43.6203 -87.6983L40.3036 -85.9896L40.9066 -89.6079C40.9066 -89.8089 40.9066 -90.0099 40.7056 -90.1104L38.0924 -92.6231L41.8112 -93.1257C42.0122 -93.1257 42.2132 -93.2262 42.3137 -93.4272L43.9218 -96.8445L45.6305 -93.6282C45.731 -93.4272 45.932 -93.3267 46.133 -93.3267L49.8518 -92.8242L47.2386 -90.211C46.9371 -90.0098 46.8365 -89.8089 46.9371 -89.6079L47.5401 -85.9896ZM84.5269 -84.281C84.7279 -84.281 84.8284 -84.3815 85.0294 -84.482C85.1299 -84.683 85.1299 -84.7836 85.1299 -84.9846L84.4264 -89.5074L87.7431 -92.7237C87.9442 -92.9247 87.9442 -93.1257 87.9442 -93.3267C87.8437 -93.5276 87.6426 -93.7287 87.4416 -93.7287L82.8183 -94.4323L80.7076 -98.4526C80.5066 -98.6535 80.3056 -98.7541 80.1046 -98.7541C79.9035 -98.7541 79.7025 -98.6535 79.602 -98.4526L77.4914 -94.4323L72.868 -93.7287C72.667 -93.7287 72.466 -93.5276 72.3655 -93.3267C72.3655 -93.0252 72.3655 -92.8242 72.5665 -92.6231L75.8832 -89.4069L75.0792 -84.9846C75.0792 -84.7836 75.1797 -84.482 75.2802 -84.3815C75.4812 -84.281 75.6822 -84.1805 75.8832 -84.3815L80.1046 -86.3917L84.2254 -84.281H84.5269ZM83.7228 -85.9896L80.4061 -87.6983C80.2051 -87.7988 80.0041 -87.7988 79.803 -87.6983L76.4863 -85.9896L77.0893 -89.6079C77.0893 -89.8089 77.0893 -90.0099 76.8883 -90.1104L74.2751 -92.6231L77.9939 -93.1257C78.1949 -93.1257 78.3959 -93.2262 78.4964 -93.4272L80.1046 -96.8445L81.8132 -93.6282C81.9137 -93.4272 82.1147 -93.3267 82.3157 -93.3267L86.0345 -92.8242L83.4213 -90.211C83.1198 -90.0098 83.0193 -89.8089 83.1198 -89.6079L83.7228 -85.9896ZM12.1614 -104.382C12.3624 -104.382 12.4629 -104.483 12.664 -104.583C12.7645 -104.784 12.7645 -104.885 12.7645 -105.086L12.0609 -109.609L15.3777 -112.825C15.5787 -113.026 15.5787 -113.227 15.5787 -113.428C15.4782 -113.629 15.2772 -113.83 15.0761 -113.83L10.4528 -114.534L8.34213 -118.554C8.14112 -118.755 7.9401 -118.855 7.73909 -118.855C7.53807 -118.855 7.33706 -118.755 7.23655 -118.554L5.12589 -114.534L0.502538 -113.83C0.301523 -113.83 0.100508 -113.629 0 -113.428C0 -113.126 0 -112.925 0.201015 -112.724L3.51777 -109.508L2.71371 -105.086C2.71371 -104.885 2.81421 -104.583 2.91472 -104.483C3.11574 -104.382 3.31675 -104.282 3.51777 -104.483L7.73909 -106.493L11.8599 -104.382H12.1614ZM30.2528 -104.382C30.4538 -104.382 30.5543 -104.483 30.7553 -104.583C30.8558 -104.784 30.8558 -104.885 30.8558 -105.086L30.1523 -109.609L33.469 -112.825C33.6701 -113.026 33.67 -113.227 33.67 -113.428C33.5695 -113.629 33.3685 -113.83 33.1675 -113.83L28.5442 -114.534L26.4335 -118.554C26.2325 -118.755 26.0315 -118.855 25.8305 -118.855C25.6294 -118.855 25.4284 -118.755 25.3279 -118.554L23.2173 -114.534L18.5939 -113.83C18.3929 -113.83 18.1919 -113.629 18.0914 -113.428C18.0914 -113.126 18.0914 -112.925 18.2924 -112.724L21.6091 -109.508L20.8051 -105.086C20.8051 -104.885 20.9056 -104.583 21.0061 -104.483C21.2071 -104.382 21.4081 -104.282 21.6091 -104.483L25.8305 -106.493L29.9513 -104.382H30.2528ZM25.8305 -107.8C25.7299 -107.8 25.8305 -116.845 25.8305 -116.845L27.5391 -113.629C27.6396 -113.428 27.8406 -113.328 28.0416 -113.328L31.7604 -112.825L29.1472 -110.212C28.8457 -110.111 28.7452 -109.91 28.8457 -109.709L29.4487 -106.091C29.4487 -106.091 25.931 -107.8 25.8305 -107.8ZM48.3442 -104.382C48.5452 -104.382 48.6457 -104.483 48.8467 -104.583C48.9472 -104.784 48.9472 -104.885 48.9472 -105.086L48.2437 -109.609L51.5604 -112.825C51.7614 -113.026 51.7614 -113.227 51.7614 -113.428C51.6609 -113.629 51.4599 -113.83 51.2589 -113.83L46.6355 -114.534L44.5249 -118.554C44.3239 -118.755 44.1228 -118.855 43.9218 -118.855C43.7208 -118.855 43.5198 -118.755 43.4193 -118.554L41.3086 -114.534L36.6853 -113.83C36.4843 -113.83 36.2832 -113.629 36.1827 -113.428C36.1827 -113.126 36.1827 -112.925 36.3838 -112.724L39.7005 -109.508L38.8964 -105.086C38.8964 -104.885 38.997 -104.583 39.0975 -104.483C39.2985 -104.382 39.4995 -104.282 39.7005 -104.483L43.9218 -106.493L48.0426 -104.382H48.3442ZM47.5401 -106.091L44.2233 -107.8C44.0223 -107.9 43.8213 -107.9 43.6203 -107.8L40.3036 -106.091L40.9066 -109.709C40.9066 -109.91 40.9066 -110.111 40.7056 -110.212L38.0924 -112.724L41.8112 -113.227C42.0122 -113.227 42.2132 -113.328 42.3137 -113.529L43.9218 -116.946L45.6305 -113.73C45.731 -113.529 45.932 -113.428 46.133 -113.428L49.8518 -112.925L47.2386 -110.312C46.9371 -110.111 46.8365 -109.91 46.9371 -109.709L47.5401 -106.091ZM66.4355 -104.382C66.6366 -104.382 66.7371 -104.483 66.9381 -104.583C67.0386 -104.784 67.0386 -104.885 67.0386 -105.086L66.335 -109.609L69.6518 -112.825C69.8528 -113.026 69.8528 -113.227 69.8528 -113.428C69.7523 -113.629 69.5513 -113.83 69.3503 -113.83L64.7269 -114.534L62.6162 -118.554C62.4152 -118.755 62.2142 -118.855 62.0132 -118.855C61.8122 -118.855 61.6112 -118.755 61.5107 -118.554L59.4 -114.534L54.7766 -113.83C54.5756 -113.83 54.3746 -113.629 54.2741 -113.428C54.2741 -113.126 54.2741 -112.925 54.4751 -112.724L57.7919 -109.508L56.9878 -105.086C56.9878 -104.885 57.0883 -104.583 57.1888 -104.483C57.3898 -104.382 57.5909 -104.282 57.7919 -104.483L62.0132 -106.493L66.134 -104.382H66.4355ZM65.6315 -106.091L62.3147 -107.8C62.1137 -107.9 61.9127 -107.9 61.7117 -107.8L58.3949 -106.091L58.998 -109.709C58.998 -109.91 58.998 -110.111 58.797 -110.212L56.1838 -112.724L59.9025 -113.227C60.1036 -113.227 60.3046 -113.328 60.4051 -113.529L62.0132 -116.946L63.7218 -113.73C63.8223 -113.529 64.0233 -113.428 64.2244 -113.428L67.9431 -112.925L65.3299 -110.312C65.0284 -110.111 64.9279 -109.91 65.0284 -109.709L65.6315 -106.091ZM84.5269 -104.382C84.7279 -104.382 84.8284 -104.483 85.0294 -104.583C85.1299 -104.784 85.1299 -104.885 85.1299 -105.086L84.4264 -109.609L87.7431 -112.825C87.9442 -113.026 87.9442 -113.227 87.9442 -113.428C87.8437 -113.629 87.6426 -113.83 87.4416 -113.83L82.8183 -114.534L80.7076 -118.554C80.5066 -118.755 80.3056 -118.855 80.1046 -118.855C79.9035 -118.855 79.7025 -118.755 79.602 -118.554L77.4914 -114.534L72.868 -113.83C72.667 -113.83 72.466 -113.629 72.3655 -113.428C72.3655 -113.126 72.3655 -112.925 72.5665 -112.724L75.8832 -109.508L75.0792 -105.086C75.0792 -104.885 75.1797 -104.583 75.2802 -104.483C75.4812 -104.382 75.6822 -104.282 75.8832 -104.483L80.1046 -106.493L84.2254 -104.382H84.5269ZM83.7228 -106.091L80.4061 -107.8C80.2051 -107.9 80.0041 -107.9 79.803 -107.8L76.4863 -106.091L77.0893 -109.709C77.0893 -109.91 77.0893 -110.111 76.8883 -110.212L74.2751 -112.724L77.9939 -113.227C78.1949 -113.227 78.3959 -113.328 78.4964 -113.529L80.1046 -116.946L81.8132 -113.73C81.9137 -113.529 82.1147 -113.428 82.3157 -113.428L86.0345 -112.925L83.4213 -110.312C83.1198 -110.111 83.0193 -109.91 83.1198 -109.709L83.7228 -106.091ZM12.1614 -124.484C12.3624 -124.484 12.4629 -124.584 12.664 -124.685C12.7645 -124.886 12.7645 -124.986 12.7645 -125.187L12.0609 -129.71L15.3777 -132.926C15.5787 -133.128 15.5787 -133.329 15.5787 -133.53C15.4782 -133.731 15.2772 -133.932 15.0761 -133.932L10.4528 -134.635L8.34213 -138.655C8.14112 -138.856 7.9401 -138.957 7.73909 -138.957C7.53807 -138.957 7.33706 -138.856 7.23655 -138.655L5.12589 -134.635L0.502538 -133.932C0.301523 -133.932 0.100508 -133.731 0 -133.53C0 -133.228 0 -133.027 0.201015 -132.826L3.51777 -129.61L2.71371 -125.187C2.71371 -124.986 2.81421 -124.685 2.91472 -124.584C3.11574 -124.484 3.31675 -124.383 3.51777 -124.584L7.73909 -126.595L11.8599 -124.484H12.1614ZM48.3442 -124.484C48.5452 -124.484 48.6457 -124.584 48.8467 -124.685C48.9472 -124.886 48.9472 -124.986 48.9472 -125.187L48.2437 -129.71L51.5604 -132.926C51.7614 -133.128 51.7614 -133.329 51.7614 -133.53C51.6609 -133.731 51.4599 -133.932 51.2589 -133.932L46.6355 -134.635L44.5249 -138.655C44.3239 -138.856 44.1228 -138.957 43.9218 -138.957C43.7208 -138.957 43.5198 -138.856 43.4193 -138.655L41.3086 -134.635L36.6853 -133.932C36.4843 -133.932 36.2832 -133.731 36.1827 -133.53C36.1827 -133.228 36.1827 -133.027 36.3838 -132.826L39.7005 -129.61L38.8964 -125.187C38.8964 -124.986 38.997 -124.685 39.0975 -124.584C39.2985 -124.484 39.4995 -124.383 39.7005 -124.584L43.9218 -126.595L48.0426 -124.484H48.3442ZM47.5401 -126.192L44.2233 -127.901C44.0223 -128.002 43.8213 -128.002 43.6203 -127.901L40.3036 -126.192L40.9066 -129.811C40.9066 -130.012 40.9066 -130.213 40.7056 -130.313L38.0924 -132.826L41.8112 -133.329C42.0122 -133.329 42.2132 -133.429 42.3137 -133.63L43.9218 -137.047L45.6305 -133.831C45.731 -133.63 45.932 -133.53 46.133 -133.53L49.8518 -133.027L47.2386 -130.414C46.9371 -130.213 46.8365 -130.012 46.9371 -129.811L47.5401 -126.192ZM30.2528 -124.484C30.4538 -124.484 30.5543 -124.584 30.7553 -124.685C30.8558 -124.886 30.8558 -124.986 30.8558 -125.187L30.1523 -129.71L33.469 -132.926C33.6701 -133.128 33.67 -133.329 33.67 -133.53C33.5695 -133.731 33.3685 -133.932 33.1675 -133.932L28.5442 -134.635L26.4335 -138.655C26.2325 -138.856 26.0315 -138.957 25.8305 -138.957C25.6294 -138.957 25.4284 -138.856 25.3279 -138.655L23.2173 -134.635L18.5939 -133.932C18.3929 -133.932 18.1919 -133.731 18.0914 -133.53C18.0914 -133.228 18.0914 -133.027 18.2924 -132.826L21.6091 -129.61L20.8051 -125.187C20.8051 -124.986 20.9056 -124.685 21.0061 -124.584C21.2071 -124.484 21.4081 -124.383 21.6091 -124.584L25.8305 -126.595L29.9513 -124.484H30.2528ZM29.4487 -126.192L26.132 -127.901C25.931 -128.002 25.7299 -128.002 25.5289 -127.901L22.2122 -126.192L22.8152 -129.811C22.8152 -130.012 22.8152 -130.213 22.6142 -130.313L20.001 -132.826L23.7198 -133.329C23.9208 -133.329 24.1218 -133.429 24.2223 -133.63L25.8305 -137.047L27.5391 -133.831C27.6396 -133.63 27.8406 -133.53 28.0416 -133.53L31.7604 -133.027L29.1472 -130.414C28.8457 -130.213 28.7452 -130.012 28.8457 -129.811L29.4487 -126.192ZM66.4355 -124.484C66.6366 -124.484 66.7371 -124.584 66.9381 -124.685C67.0386 -124.886 67.0386 -124.986 67.0386 -125.187L66.335 -129.71L69.6518 -132.926C69.8528 -133.128 69.8528 -133.329 69.8528 -133.53C69.7523 -133.731 69.5513 -133.932 69.3503 -133.932L64.7269 -134.635L62.6162 -138.655C62.4152 -138.856 62.2142 -138.957 62.0132 -138.957C61.8122 -138.957 61.6112 -138.856 61.5107 -138.655L59.4 -134.635L54.7766 -133.932C54.5756 -133.932 54.3746 -133.731 54.2741 -133.53C54.2741 -133.228 54.2741 -133.027 54.4751 -132.826L57.7919 -129.61L56.9878 -125.187C56.9878 -124.986 57.0883 -124.685 57.1888 -124.584C57.3898 -124.484 57.5909 -124.383 57.7919 -124.584L62.0132 -126.595L66.134 -124.484H66.4355ZM65.6315 -126.192L62.3147 -127.901C62.1137 -128.002 61.9127 -128.002 61.7117 -127.901L58.3949 -126.192L58.998 -129.811C58.998 -130.012 58.998 -130.213 58.797 -130.313L56.1838 -132.826L59.9025 -133.329C60.1036 -133.329 60.3046 -133.429 60.4051 -133.63L62.0132 -137.047L63.7218 -133.831C63.8223 -133.63 64.0233 -133.53 64.2244 -133.53L67.9431 -133.027L65.3299 -130.414C65.0284 -130.213 64.9279 -130.012 65.0284 -129.811L65.6315 -126.192ZM84.5269 -124.484C84.7279 -124.484 84.8284 -124.584 85.0294 -124.685C85.1299 -124.886 85.1299 -124.986 85.1299 -125.187L84.4264 -129.71L87.7431 -132.926C87.9442 -133.128 87.9442 -133.329 87.9442 -133.53C87.8437 -133.731 87.6426 -133.932 87.4416 -133.932L82.8183 -134.635L80.7076 -138.655C80.5066 -138.856 80.3056 -138.957 80.1046 -138.957C79.9035 -138.957 79.7025 -138.856 79.602 -138.655L77.4914 -134.635L72.868 -133.932C72.667 -133.932 72.466 -133.731 72.3655 -133.53C72.3655 -133.228 72.3655 -133.027 72.5665 -132.826L75.8832 -129.61L75.0792 -125.187C75.0792 -124.986 75.1797 -124.685 75.2802 -124.584C75.4812 -124.484 75.6822 -124.383 75.8832 -124.584L80.1046 -126.595L84.2254 -124.484H84.5269ZM83.7228 -126.192L80.4061 -127.901C80.2051 -128.002 80.0041 -128.002 79.803 -127.901L76.4863 -126.192L77.0893 -129.811C77.0893 -130.012 77.0893 -130.213 76.8883 -130.313L74.2751 -132.826L77.9939 -133.329C78.1949 -133.329 78.3959 -133.429 78.4964 -133.63L80.1046 -137.047L81.8132 -133.831C81.9137 -133.63 82.1147 -133.53 82.3157 -133.53L86.0345 -133.027L83.4213 -130.414C83.1198 -130.213 83.0193 -130.012 83.1198 -129.811L83.7228 -126.192ZM12.1614 -144.585C12.3624 -144.585 12.4629 -144.686 12.664 -144.786C12.7645 -144.987 12.7645 -145.088 12.7645 -145.289L12.0609 -149.812L15.3777 -153.028C15.5787 -153.229 15.5787 -153.43 15.5787 -153.631C15.4782 -153.832 15.2772 -154.033 15.0761 -154.033L10.4528 -154.737L8.34213 -158.757C8.14112 -158.958 7.9401 -159.058 7.73909 -159.058C7.53807 -159.058 7.33706 -158.958 7.23655 -158.757L5.12589 -154.737L0.502538 -154.033C0.301523 -154.033 0.100508 -153.832 0 -153.631C0 -153.33 0 -153.129 0.201015 -152.928L3.51777 -149.711L2.71371 -145.289C2.71371 -145.088 2.81421 -144.786 2.91472 -144.686C3.11574 -144.585 3.31675 -144.485 3.51777 -144.686L7.73909 -146.696L11.8599 -144.585H12.1614ZM7.73909 -148.003C7.63858 -148.003 7.73909 -157.048 7.73909 -157.048L9.44771 -153.832C9.54822 -153.631 9.74924 -153.531 9.95025 -153.531L13.669 -153.028L11.0558 -150.415C10.7543 -150.314 10.6538 -150.113 10.7543 -149.912L11.3574 -146.294C11.3574 -146.294 7.83959 -148.003 7.73909 -148.003ZM30.2528 -144.585C30.4538 -144.585 30.5543 -144.686 30.7553 -144.786C30.8558 -144.987 30.8558 -145.088 30.8558 -145.289L30.1523 -149.812L33.469 -153.028C33.6701 -153.229 33.67 -153.43 33.67 -153.631C33.5695 -153.832 33.3685 -154.033 33.1675 -154.033L28.5442 -154.737L26.4335 -158.757C26.2325 -158.958 26.0315 -159.058 25.8305 -159.058C25.6294 -159.058 25.4284 -158.958 25.3279 -158.757L23.2173 -154.737L18.5939 -154.033C18.3929 -154.033 18.1919 -153.832 18.0914 -153.631C18.0914 -153.33 18.0914 -153.129 18.2924 -152.928L21.6091 -149.711L20.8051 -145.289C20.8051 -145.088 20.9056 -144.786 21.0061 -144.686C21.2071 -144.585 21.4081 -144.485 21.6091 -144.686L25.8305 -146.696L29.9513 -144.585H30.2528ZM29.4487 -146.294L26.132 -148.003C25.931 -148.103 25.7299 -148.103 25.5289 -148.003L22.2122 -146.294L22.8152 -149.912C22.8152 -150.113 22.8152 -150.314 22.6142 -150.415L20.001 -152.928L23.7198 -153.43C23.9208 -153.43 24.1218 -153.531 24.2223 -153.732L25.8305 -157.149L27.5391 -153.933C27.6396 -153.732 27.8406 -153.631 28.0416 -153.631L31.7604 -153.129L29.1472 -150.515C28.8457 -150.314 28.7452 -150.113 28.8457 -149.912L29.4487 -146.294ZM48.3442 -144.585C48.5452 -144.585 48.6457 -144.686 48.8467 -144.786C48.9472 -144.987 48.9472 -145.088 48.9472 -145.289L48.2437 -149.812L51.5604 -153.028C51.7614 -153.229 51.7614 -153.43 51.7614 -153.631C51.6609 -153.832 51.4599 -154.033 51.2589 -154.033L46.6355 -154.737L44.5249 -158.757C44.3239 -158.958 44.1228 -159.058 43.9218 -159.058C43.7208 -159.058 43.5198 -158.958 43.4193 -158.757L41.3086 -154.737L36.6853 -154.033C36.4843 -154.033 36.2832 -153.832 36.1827 -153.631C36.1827 -153.33 36.1827 -153.129 36.3838 -152.928L39.7005 -149.711L38.8964 -145.289C38.8964 -145.088 38.997 -144.786 39.0975 -144.686C39.2985 -144.585 39.4995 -144.485 39.7005 -144.686L43.9218 -146.696L48.0426 -144.585H48.3442ZM47.5401 -146.294L44.2233 -148.003C44.0223 -148.103 43.8213 -148.103 43.6203 -148.003L40.3036 -146.294L40.9066 -149.912C40.9066 -150.113 40.9066 -150.314 40.7056 -150.415L38.0924 -152.928L41.8112 -153.43C42.0122 -153.43 42.2132 -153.531 42.3137 -153.732L43.9218 -157.149L45.6305 -153.933C45.731 -153.732 45.932 -153.631 46.133 -153.631L49.8518 -153.129L47.2386 -150.515C46.9371 -150.314 46.8365 -150.113 46.9371 -149.912L47.5401 -146.294ZM66.4355 -144.585C66.6366 -144.585 66.7371 -144.686 66.9381 -144.786C67.0386 -144.987 67.0386 -145.088 67.0386 -145.289L66.335 -149.812L69.6518 -153.028C69.8528 -153.229 69.8528 -153.43 69.8528 -153.631C69.7523 -153.832 69.5513 -154.033 69.3503 -154.033L64.7269 -154.737L62.6162 -158.757C62.4152 -158.958 62.2142 -159.058 62.0132 -159.058C61.8122 -159.058 61.6112 -158.958 61.5107 -158.757L59.4 -154.737L54.7766 -154.033C54.5756 -154.033 54.3746 -153.832 54.2741 -153.631C54.2741 -153.33 54.2741 -153.129 54.4751 -152.928L57.7919 -149.711L56.9878 -145.289C56.9878 -145.088 57.0883 -144.786 57.1888 -144.686C57.3898 -144.585 57.5909 -144.485 57.7919 -144.686L62.0132 -146.696L66.134 -144.585H66.4355ZM65.6315 -146.294L62.3147 -148.003C62.1137 -148.103 61.9127 -148.103 61.7117 -148.003L58.3949 -146.294L58.998 -149.912C58.998 -150.113 58.998 -150.314 58.797 -150.415L56.1838 -152.928L59.9025 -153.43C60.1036 -153.43 60.3046 -153.531 60.4051 -153.732L62.0132 -157.149L63.7218 -153.933C63.8223 -153.732 64.0233 -153.631 64.2244 -153.631L67.9431 -153.129L65.3299 -150.515C65.0284 -150.314 64.9279 -150.113 65.0284 -149.912L65.6315 -146.294ZM84.5269 -144.585C84.7279 -144.585 84.8284 -144.686 85.0294 -144.786C85.1299 -144.987 85.1299 -145.088 85.1299 -145.289L84.4264 -149.812L87.7431 -153.028C87.9442 -153.229 87.9442 -153.43 87.9442 -153.631C87.8437 -153.832 87.6426 -154.033 87.4416 -154.033L82.8183 -154.737L80.7076 -158.757C80.5066 -158.958 80.3056 -159.058 80.1046 -159.058C79.9035 -159.058 79.7025 -158.958 79.602 -158.757L77.4914 -154.737L72.868 -154.033C72.667 -154.033 72.466 -153.832 72.3655 -153.631C72.3655 -153.33 72.3655 -153.129 72.5665 -152.928L75.8832 -149.711L75.0792 -145.289C75.0792 -145.088 75.1797 -144.786 75.2802 -144.686C75.4812 -144.585 75.6822 -144.485 75.8832 -144.686L80.1046 -146.696L84.2254 -144.585H84.5269ZM83.7228 -146.294L80.4061 -148.003C80.2051 -148.103 80.0041 -148.103 79.803 -148.003L76.4863 -146.294L77.0893 -149.912C77.0893 -150.113 77.0893 -150.314 76.8883 -150.415L74.2751 -152.928L77.9939 -153.43C78.1949 -153.43 78.3959 -153.531 78.4964 -153.732L80.1046 -157.149L81.8132 -153.933C81.9137 -153.732 82.1147 -153.631 82.3157 -153.631L86.0345 -153.129L83.4213 -150.515C83.1198 -150.314 83.0193 -150.113 83.1198 -149.912L83.7228 -146.294ZM12.1614 -164.687C12.3624 -164.687 12.4629 -164.787 12.664 -164.888C12.7645 -165.089 12.7645 -165.189 12.7645 -165.39L12.0609 -169.913L15.3777 -173.13C15.5787 -173.331 15.5787 -173.532 15.5787 -173.733C15.4782 -173.934 15.2772 -174.135 15.0761 -174.135L10.4528 -174.838L8.34213 -178.858C8.14112 -179.059 7.9401 -179.16 7.73909 -179.16C7.53807 -179.16 7.33706 -179.059 7.23655 -178.858L5.12589 -174.838L0.502538 -174.135C0.301523 -174.135 0.100508 -173.934 0 -173.733C0 -173.431 0 -173.23 0.201015 -173.029L3.51777 -169.813L2.71371 -165.39C2.71371 -165.189 2.81421 -164.888 2.91472 -164.787C3.11574 -164.687 3.31675 -164.586 3.51777 -164.787L7.73909 -166.798L11.8599 -164.687H12.1614ZM11.3574 -166.396L8.04061 -168.104C7.83959 -168.205 7.63858 -168.205 7.43756 -168.104L4.12081 -166.396L4.72386 -170.014C4.72386 -170.215 4.72386 -170.416 4.52284 -170.516L1.90964 -173.029L5.62843 -173.532C5.82944 -173.532 6.03046 -173.632 6.13096 -173.833L7.73909 -177.25L9.44771 -174.034C9.54822 -173.833 9.74924 -173.733 9.95025 -173.733L13.669 -173.23L11.0558 -170.617C10.7543 -170.416 10.6538 -170.215 10.7543 -170.014L11.3574 -166.396ZM30.2528 -164.687C30.4538 -164.687 30.5543 -164.787 30.7553 -164.888C30.8558 -165.089 30.8558 -165.189 30.8558 -165.39L30.1523 -169.913L33.469 -173.13C33.6701 -173.331 33.67 -173.532 33.67 -173.733C33.5695 -173.934 33.3685 -174.135 33.1675 -174.135L28.5442 -174.838L26.4335 -178.858C26.2325 -179.059 26.0315 -179.16 25.8305 -179.16C25.6294 -179.16 25.4284 -179.059 25.3279 -178.858L23.2173 -174.838L18.5939 -174.135C18.3929 -174.135 18.1919 -173.934 18.0914 -173.733C18.0914 -173.431 18.0914 -173.23 18.2924 -173.029L21.6091 -169.813L20.8051 -165.39C20.8051 -165.189 20.9056 -164.888 21.0061 -164.787C21.2071 -164.687 21.4081 -164.586 21.6091 -164.787L25.8305 -166.798L29.9513 -164.687H30.2528ZM29.4487 -166.396L26.132 -168.104C25.931 -168.205 25.7299 -168.205 25.5289 -168.104L22.2122 -166.396L22.8152 -170.014C22.8152 -170.215 22.8152 -170.416 22.6142 -170.516L20.001 -173.029L23.7198 -173.532C23.9208 -173.532 24.1218 -173.632 24.2223 -173.833L25.8305 -177.25L27.5391 -174.034C27.6396 -173.833 27.8406 -173.733 28.0416 -173.733L31.7604 -173.23L29.1472 -170.617C28.8457 -170.416 28.7452 -170.215 28.8457 -170.014L29.4487 -166.396ZM48.3442 -164.687C48.5452 -164.687 48.6457 -164.787 48.8467 -164.888C48.9472 -165.089 48.9472 -165.189 48.9472 -165.39L48.2437 -169.913L51.5604 -173.13C51.7614 -173.331 51.7614 -173.532 51.7614 -173.733C51.6609 -173.934 51.4599 -174.135 51.2589 -174.135L46.6355 -174.838L44.5249 -178.858C44.3239 -179.059 44.1228 -179.16 43.9218 -179.16C43.7208 -179.16 43.5198 -179.059 43.4193 -178.858L41.3086 -174.838L36.6853 -174.135C36.4843 -174.135 36.2832 -173.934 36.1827 -173.733C36.1827 -173.431 36.1827 -173.23 36.3838 -173.029L39.7005 -169.813L38.8964 -165.39C38.8964 -165.189 38.997 -164.888 39.0975 -164.787C39.2985 -164.687 39.4995 -164.586 39.7005 -164.787L43.9218 -166.798L48.0426 -164.687H48.3442ZM47.5401 -166.396L44.2233 -168.104C44.0223 -168.205 43.8213 -168.205 43.6203 -168.104L40.3036 -166.396L40.9066 -170.014C40.9066 -170.215 40.9066 -170.416 40.7056 -170.516L38.0924 -173.029L41.8112 -173.532C42.0122 -173.532 42.2132 -173.632 42.3137 -173.833L43.9218 -177.25L45.6305 -174.034C45.731 -173.833 45.932 -173.733 46.133 -173.733L49.8518 -173.23L47.2386 -170.617C46.9371 -170.416 46.8365 -170.215 46.9371 -170.014L47.5401 -166.396ZM66.4355 -164.687C66.6366 -164.687 66.7371 -164.787 66.9381 -164.888C67.0386 -165.089 67.0386 -165.189 67.0386 -165.39L66.335 -169.913L69.6518 -173.13C69.8528 -173.331 69.8528 -173.532 69.8528 -173.733C69.7523 -173.934 69.5513 -174.135 69.3503 -174.135L64.7269 -174.838L62.6162 -178.858C62.4152 -179.059 62.2142 -179.16 62.0132 -179.16C61.8122 -179.16 61.6112 -179.059 61.5107 -178.858L59.4 -174.838L54.7766 -174.135C54.5756 -174.135 54.3746 -173.934 54.2741 -173.733C54.2741 -173.431 54.2741 -173.23 54.4751 -173.029L57.7919 -169.813L56.9878 -165.39C56.9878 -165.189 57.0883 -164.888 57.1888 -164.787C57.3898 -164.687 57.5909 -164.586 57.7919 -164.787L62.0132 -166.798L66.134 -164.687H66.4355ZM65.6315 -166.396L62.3147 -168.104C62.1137 -168.205 61.9127 -168.205 61.7117 -168.104L58.3949 -166.396L58.998 -170.014C58.998 -170.215 58.998 -170.416 58.797 -170.516L56.1838 -173.029L59.9025 -173.532C60.1036 -173.532 60.3046 -173.632 60.4051 -173.833L62.0132 -177.25L63.7218 -174.034C63.8223 -173.833 64.0233 -173.733 64.2244 -173.733L67.9431 -173.23L65.3299 -170.617C65.0284 -170.416 64.9279 -170.215 65.0284 -170.014L65.6315 -166.396ZM84.5269 -164.687C84.7279 -164.687 84.8284 -164.787 85.0294 -164.888C85.1299 -165.089 85.1299 -165.189 85.1299 -165.39L84.4264 -169.913L87.7431 -173.13C87.9442 -173.331 87.9442 -173.532 87.9442 -173.733C87.8437 -173.934 87.6426 -174.135 87.4416 -174.135L82.8183 -174.838L80.7076 -178.858C80.5066 -179.059 80.3056 -179.16 80.1046 -179.16C79.9035 -179.16 79.7025 -179.059 79.602 -178.858L77.4914 -174.838L72.868 -174.135C72.667 -174.135 72.466 -173.934 72.3655 -173.733C72.3655 -173.431 72.3655 -173.23 72.5665 -173.029L75.8832 -169.813L75.0792 -165.39C75.0792 -165.189 75.1797 -164.888 75.2802 -164.787C75.4812 -164.687 75.6822 -164.586 75.8832 -164.787L80.1046 -166.798L84.2254 -164.687H84.5269ZM83.7228 -166.396L80.4061 -168.104C80.2051 -168.205 80.0041 -168.205 79.803 -168.104L76.4863 -166.396L77.0893 -170.014C77.0893 -170.215 77.0893 -170.416 76.8883 -170.516L74.2751 -173.029L77.9939 -173.532C78.1949 -173.532 78.3959 -173.632 78.4964 -173.833L80.1046 -177.25L81.8132 -174.034C81.9137 -173.833 82.1147 -173.733 82.3157 -173.733L86.0345 -173.23L83.4213 -170.617C83.1198 -170.416 83.0193 -170.215 83.1198 -170.014L83.7228 -166.396Z" fill="#FEC724"></path>
          </g>
        </g>
      </g>
    </g>
  </g>
  <defs>
    <clipPath id="clip0_488_746">
      <rect width="88" height="16" fill="white" transform="translate(0 0.839844)"></rect>
    </clipPath>
    <clipPath id="clip1_488_746">
      <rect width="88" height="16" fill="white" transform="translate(0 0.839844)"></rect>
    </clipPath>
    <clipPath id="clip2_488_746">
      <rect width="88" height="16" fill="white" transform="translate(0 0.839844)"></rect>
    </clipPath>
  </defs>
</svg>
