<svg width="16" height="12" viewBox="0 0 16 12" fill="none" xmlns="http://www.w3.org/2000/svg">
<mask id="mask0_732_2" style="mask-type:luminance" maskUnits="userSpaceOnUse" x="1" y="1" width="15" height="11">
<path d="M15.4958 1H1V11.7478H15.4958V1Z" fill="white"/>
</mask>
<g mask="url(#mask0_732_2)">
<path d="M14.2479 1C13.9166 1.00056 13.599 1.13263 13.3651 1.36719L5.99788 8.73438L3.1307 5.86718C2.89636 5.6334 2.57888 5.50212 2.24788 5.50212C1.91688 5.50212 1.59939 5.6334 1.36507 5.86718C1.13129 6.10152 1 6.419 1 6.75C1 7.081 1.13129 7.39848 1.36507 7.63282L5.11506 11.3828C5.34942 11.6166 5.66688 11.7478 5.99788 11.7478C6.32888 11.7478 6.64634 11.6166 6.8807 11.3828L15.1307 3.13282C15.3645 2.89848 15.4958 2.581 15.4958 2.25C15.4958 1.919 15.3645 1.60151 15.1307 1.36719C14.8967 1.13263 14.5792 1.00056 14.2479 1Z" fill="#41AD48"/>
</g>
</svg>
